ModelForces
version=1
nRows=4
nColumns=155
inDegrees=no

This file contains the forces exerted on a model during a simulation.

A force is a generalized force, meaning that it can be either a force (N) or a torque (Nm).

Units are S.I. units (second, meters, Newtons, ...)
Angles are in degrees.

endheader
time	glut_med1_r	glut_med2_r	glut_med3_r	glut_min1_r	glut_min2_r	glut_min3_r	semimem_r	semiten_r	bifemlh_r	bifemsh_r	sar_r	add_long_r	add_brev_r	add_mag1_r	add_mag2_r	add_mag3_r	tfl_r	pect_r	grac_r	glut_max1_r	glut_max2_r	glut_max3_r	iliacus_r	psoas_r	quad_fem_r	gem_r	peri_r	rect_fem_r	vas_med_r	vas_int_r	vas_lat_r	med_gas_r	lat_gas_r	soleus_r	tib_post_r	flex_dig_r	flex_hal_r	tib_ant_r	per_brev_r	per_long_r	per_tert_r	ext_dig_r	ext_hal_r	glut_med1_l	glut_med2_l	glut_med3_l	glut_min1_l	glut_min2_l	glut_min3_l	semimem_l	semiten_l	bifemlh_l	bifemsh_l	sar_l	add_long_l	add_brev_l	add_mag1_l	add_mag2_l	add_mag3_l	tfl_l	pect_l	grac_l	glut_max1_l	glut_max2_l	glut_max3_l	iliacus_l	psoas_l	quad_fem_l	gem_l	peri_l	rect_fem_l	vas_med_l	vas_int_l	vas_lat_l	med_gas_l	lat_gas_l	soleus_l	tib_post_l	flex_dig_l	flex_hal_l	tib_ant_l	per_brev_l	per_long_l	per_tert_l	ext_dig_l	ext_hal_l	ercspn_r	ercspn_l	intobl_r	intobl_l	extobl_r	extobl_l	femur_lat_meniscii_r.femur_lat_r.force.X	femur_lat_meniscii_r.femur_lat_r.force.Y	femur_lat_meniscii_r.femur_lat_r.force.Z	femur_lat_meniscii_r.femur_lat_r.torque.X	femur_lat_meniscii_r.femur_lat_r.torque.Y	femur_lat_meniscii_r.femur_lat_r.torque.Z	femur_lat_meniscii_r.meniscus_lat_r.force.X	femur_lat_meniscii_r.meniscus_lat_r.force.Y	femur_lat_meniscii_r.meniscus_lat_r.force.Z	femur_lat_meniscii_r.meniscus_lat_r.torque.X	femur_lat_meniscii_r.meniscus_lat_r.torque.Y	femur_lat_meniscii_r.meniscus_lat_r.torque.Z	femur_med_meniscii_r.femur_med_r.force.X	femur_med_meniscii_r.femur_med_r.force.Y	femur_med_meniscii_r.femur_med_r.force.Z	femur_med_meniscii_r.femur_med_r.torque.X	femur_med_meniscii_r.femur_med_r.torque.Y	femur_med_meniscii_r.femur_med_r.torque.Z	femur_med_meniscii_r.meniscus_med_r.force.X	femur_med_meniscii_r.meniscus_med_r.force.Y	femur_med_meniscii_r.meniscus_med_r.force.Z	femur_med_meniscii_r.meniscus_med_r.torque.X	femur_med_meniscii_r.meniscus_med_r.torque.Y	femur_med_meniscii_r.meniscus_med_r.torque.Z	femur_med_tibia_r.tibia_upper_r.force.X	femur_med_tibia_r.tibia_upper_r.force.Y	femur_med_tibia_r.tibia_upper_r.force.Z	femur_med_tibia_r.tibia_upper_r.torque.X	femur_med_tibia_r.tibia_upper_r.torque.Y	femur_med_tibia_r.tibia_upper_r.torque.Z	femur_med_tibia_r.femur_med_r.force.X	femur_med_tibia_r.femur_med_r.force.Y	femur_med_tibia_r.femur_med_r.force.Z	femur_med_tibia_r.femur_med_r.torque.X	femur_med_tibia_r.femur_med_r.torque.Y	femur_med_tibia_r.femur_med_r.torque.Z	femur_lat_tibia_r.tibia_upper_r.force.X	femur_lat_tibia_r.tibia_upper_r.force.Y	femur_lat_tibia_r.tibia_upper_r.force.Z	femur_lat_tibia_r.tibia_upper_r.torque.X	femur_lat_tibia_r.tibia_upper_r.torque.Y	femur_lat_tibia_r.tibia_upper_r.torque.Z	femur_lat_tibia_r.femur_lat_r.force.X	femur_lat_tibia_r.femur_lat_r.force.Y	femur_lat_tibia_r.femur_lat_r.force.Z	femur_lat_tibia_r.femur_lat_r.torque.X	femur_lat_tibia_r.femur_lat_r.torque.Y	femur_lat_tibia_r.femur_lat_r.torque.Z	aACL_R	pACL_R	aPCL_R	pPCL_R	aMCL_R	mMCL_R	pMCL_R	aLCL_R	mLCL_R	pLCL_R	aPCL_L	pPCL_L	aMCL_L	aLCL_L
      0.13290150	     13.52929105	      9.74121816	     10.49609257	      4.46984446	      5.15502542	      5.71547670	     68.66121374	    155.03498764	    123.93034727	    273.59950626	    130.30770259	      9.71183298	      6.92802532	      5.00419266	      4.26022445	      7.25882454	      6.07533075	      3.77696470	     97.72611212	      6.29451028	      9.57856919	      7.21451019	     30.12864220	     21.47344871	      6.16615100	      4.08277175	      8.26380689	     53.22970669	     36.61119480	     38.51976364	     51.10303741	      0.00000000	      0.00000000	      0.00000000	      0.00000000	      0.00000000	      0.00000000	     43.95550002	      1.79671384	      2.02143867	     37.20143209	     32.33657213	      7.99811737	     13.52929105	      9.74121816	     10.49609257	      4.46984446	      5.15502542	      5.71547670	     17.01907828	      7.28522489	     14.70761319	     12.27525248	      2.54863142	      9.71183298	      6.92802532	      5.00419266	      4.26022445	      7.25882454	      6.12573031	      3.77696470	      2.63778399	      6.29451028	      9.57856919	      7.21451019	     30.12864220	     21.47344871	      6.16615100	      4.08277175	      8.26380689	     20.28683392	     11.50666260	     13.32560940	     14.31275712	     29.47239263	     13.70222980	     62.90339560	     55.82961727	      6.71313002	      6.58593365	     15.79224422	      8.51021665	     21.46360513	      3.31828943	     10.38853894	      3.24321838	     42.08707597	     42.08707597	     15.81917639	     15.81917639	     32.97218909	     32.97218909	     54.62697426	    137.83665189	     -7.07355483	     -0.18927185	      1.17719885	     20.86000099	    -54.62697426	   -137.83665189	      7.07355483	      3.24626348	     -1.16273072	      3.03017105	    115.80038963	    189.45030728	     -8.10900598	      7.42470303	     -2.52352763	     45.22829090	   -115.80038963	   -189.45030728	      8.10900598	     -3.84691007	      2.41610817	      3.35462662	   -334.66342715	   -656.57724977	     79.03816653	    -13.87856330	      8.26948425	     10.09605892	    334.66342715	    656.57724977	    -79.03816653	     45.97619128	     -7.46484643	    132.49592620	      0.00000000	      0.00000000	      0.00000000	      0.00000000	      0.00000000	      0.00000000	      0.00000000	      0.00000000	      0.00000000	      0.00000000	      0.00000000	      0.00000000	      5.74365351	      0.00000000	    430.70454399	    208.36180218	      0.00000000	      0.00000000	      0.00000000	      0.00000000	      0.00000000	      0.00000000	      0.00000000	      0.00000000	      0.00000001	      0.00000000
      0.13306580	     13.51616444	      9.73231379	     10.48638940	      4.46591860	      5.15071218	      5.70994203	     68.23236521	    155.04886745	    123.97530792	    273.60768052	    130.31146440	      9.70285856	      6.92199639	      4.99963244	      4.25625728	      7.25165216	      6.06914509	      3.77362321	     97.71495146	      6.28872372	      9.56974772	      7.20777537	     30.11211347	     21.45460201	      6.16062073	      4.08003481	      8.25517325	     53.36967549	     36.59455087	     38.49443150	     51.07486889	      0.00000000	      0.00000000	      0.00000000	      0.00000000	      0.00000000	      0.00000000	     43.97732867	      1.80765775	      2.04015235	     28.09242408	     32.39532807	      8.01101548	     13.51616444	      9.73231379	     10.48638940	      4.46591860	      5.15071218	      5.70994203	     17.00152250	      7.27819673	     14.69253324	     12.26422832	      2.54640328	      9.70285856	      6.92199639	      4.99963244	      4.25625728	      7.25165216	      6.12127332	      3.77362321	      2.63543821	      6.28872372	      9.56974772	      7.20777537	     30.11211347	     21.45460201	      6.16062073	      4.08003481	      8.25517325	     20.26610787	     11.49581804	     13.31287971	     14.29906604	     29.44159624	     13.68787072	     62.83746733	     55.80043187	      6.70595629	      6.57889184	     15.77629963	      8.50134674	     21.44469114	      3.31538789	     10.37771137	      3.23986174	     42.05003051	     42.05003051	     15.80421747	     15.80421747	     32.95852457	     32.95852457	     54.54486736	    137.76281996	     -7.24987665	     -0.11500963	      1.17323928	     20.82313362	    -54.54486736	   -137.76281996	      7.24987665	      3.24059297	     -1.15493554	      3.04018331	    117.21822119	    189.40397856	     -8.61406461	      7.63113642	     -2.55310293	     45.80005145	   -117.21822119	   -189.40397856	      8.61406461	     -3.85737779	      2.45249386	      3.34022491	   -336.23914655	   -656.82022313	     79.06143999	    -13.87528556	      8.30006472	     10.11481902	    336.23914655	    656.82022313	    -79.06143999	     45.98648340	     -7.49676273	    133.12399311	      0.00000000	      0.00000000	      0.00000000	      0.00000000	      0.00000000	      0.00000000	      0.00000000	      0.00000000	      0.00000000	      0.00000000	      0.00000000	      0.00000000	      5.79264622	      0.00000000	    432.72560219	    209.46079362	      0.00000000	      0.00000000	      0.00000000	      0.00000000	      0.00000000	      0.00000000	      0.00000000	      0.00000000	      0.00000001	      0.00000000
      0.13330715	     13.49693504	      9.71926956	     10.47217509	      4.46016735	      5.14439361	      5.70183420	     67.59374031	    155.06530326	    124.03906757	    273.61415468	    130.31434265	      9.68971181	      6.91316414	      4.99295210	      4.25044577	      7.24114511	      6.06009851	      3.76872808	     97.69633298	      6.28024699	      9.55682515	      7.19790956	     30.08790141	     21.42699424	      6.15251921	      4.07602569	      8.24252350	     53.58004664	     36.58074313	     38.48150718	     51.06061252	      0.00000000	      0.00000000	      0.00000000	      0.00000000	      0.00000000	      0.00000000	     44.00924717	      1.82373529	      2.06771274	     28.72355473	     32.48159530	      8.02997523	     13.49693504	      9.71926956	     10.47217509	      4.46016735	      5.14439361	      5.70183420	     16.97580136	      7.26790109	     14.67044045	     12.24807863	      2.54313911	      9.68971181	      6.91316414	      4.99295210	      4.25044577	      7.24114511	      6.11474421	      3.76872808	      2.63200176	      6.28024699	      9.55682515	      7.19790956	     30.08790141	     21.42699424	      6.15251921	      4.07602569	      8.24252350	     20.23574371	     11.47993221	     13.29423238	     14.27901068	     29.39647086	     13.66683081	     62.74087157	     55.75767737	      6.69544254	      6.56857209	     15.75294107	      8.48835169	     21.41698196	      3.31113754	     10.36184939	      3.23494466	     41.99576025	     41.99576025	     15.78230401	     15.78230401	     32.93850848	     32.93850848	     54.55824440	    137.88691796	     -7.14791960	     -0.16005512	      1.17293563	     20.82165464	    -54.55824440	   -137.88691796	      7.14791960	      3.24734361	     -1.15656102	      3.05870408	    118.17173192	    188.94813985	     -8.81355292	      7.69240887	     -2.56904108	     46.18623550	   -118.17173192	   -188.94813985	      8.81355292	     -3.84143907	      2.47019619	      3.32832656	   -338.69695204	   -657.02059466	     78.97595133	    -13.86402712	      8.34425877	     10.13303526	    338.69695204	    657.02059466	    -78.97595133	     45.94855136	     -7.54569937	    134.10834893	      0.00000000	      0.00000000	      0.00000000	      0.00000000	      0.00000000	      0.00000000	      0.00000000	      0.00000000	      0.00000000	      0.00000000	      0.00000000	      0.00000000	      5.87432322	      0.00000000	    435.67954880	    211.03788607	      0.00000000	      0.00000000	      0.00000000	      0.00000000	      0.00000000	      0.00000000	      0.00000000	      0.00000000	      0.00000001	      0.00000000
      0.13382920	     13.45555712	      9.69120069	     10.44158885	      4.44779100	      5.13079716	      5.68438773	     66.17828760	    155.08583890	    124.16883416	    273.60027611	    130.31015912	      9.66142273	      6.89415738	      4.97857733	      4.23794090	      7.21853556	      6.04039830	      3.75819424	     97.64725618	      6.26200718	      9.52901892	      7.17668077	     30.03580652	     21.36759213	      6.13508582	      4.06739996	      8.21529491	     54.04038744	     36.53693395	     38.45628546	     51.04248109	      0.00000000	      0.00000000	      0.00000000	      0.00000000	      0.00000000	      0.00000000	     44.07680298	      1.85846352	      2.12755300	      5.57065111	     32.66975594	      8.07134514	     13.45555712	      9.69120069	     10.44158885	      4.44779100	      5.13079716	      5.68438773	     16.92044096	      7.24574704	     14.62289343	     12.21332681	      2.53611478	      9.66142273	      6.89415738	      4.97857733	      4.23794090	      7.21853556	      6.10069487	      3.75819424	      2.62460689	      6.26200718	      9.52901892	      7.17668077	     30.03580652	     21.36759213	      6.13508582	      4.06739996	      8.21529491	     20.17039715	     11.44575130	     13.25410946	     14.23585930	     29.29932459	     13.62153666	     62.53295065	     55.66567688	      6.67279952	      6.54634962	     15.70267384	      8.46038342	     21.35735016	      3.30199225	     10.32771539	      3.22436444	     41.87897445	     41.87897445	     15.73515103	     15.73515103	     32.89544304	     32.89544304	     54.64217139	    135.75470567	     -7.57064795	      0.05679442	      1.16838629	     20.86943377	    -54.64217139	   -135.75470567	      7.57064795	      3.19091083	     -1.14333674	      3.02049785	    115.48870876	    185.69456882	     -8.65750787	      7.55503699	     -2.51033641	     45.11151533	   -115.48870876	   -185.69456882	      8.65750787	     -3.76960250	      2.41456295	      3.33086978	   -344.10552592	   -657.34306242	     79.24476703	    -13.85084596	      8.45474940	     10.16889994	    344.10552592	    657.34306242	    -79.24476703	     46.05314643	     -7.65767133	    136.27538544	      0.00000000	      0.00000000	      0.00000000	      0.00000000	      0.00000000	      0.00000000	      0.00000000	      0.00000000	      0.00000000	      0.00000000	      0.00000000	      0.00000000	      5.98586576	      0.00000000	    441.90619883	    214.05755398	      0.00000000	      0.00000000	      0.00000000	      0.00000000	      0.00000000	      0.00000000	      0.00000000	      0.00000000	      0.00000001	      0.00000000
